# xmcd
#
# Track frame offsets:
# 150
# 5961
# 24614
# 32751
# 48857
# 62371
# 77515
# 88437
# 100750
# 113855
# 129540
# 142495
# 163392
# 172615
# 195408
# 216785
#
# Disc length: 3146 seconds
#
#
# Revision: 0
# Processed by: cddbd v1.5.1PL0 Copyright (c) Steve Scherf et al.
# Submitted via: FreeRIP 2.80 
#
DISCID=db0c4810
DTITLE=Jim Greeninger - Country Guitar Tribute
DYEAR=2002
DGENRE=Acoustic
TTITLE0=Bumble bee boogie
TTITLE1=Yesterday when I was young
TTITLE2=Alabama jubilee
TTITLE3=Crazy
TTITLE4=Windy and warm
TTITLE5=Smokies wild ride
TTITLE6=America the beautiful
TTITLE7=Sugar foot rag
TTITLE8=Only you
TTITLE9=Let it be me
TTITLE10=What a wonderful world
TTITLE11=Gospel medley
TTITLE12=Flat out
TTITLE13=Good time charlies got the blues
TTITLE14=You were always on my mind
TTITLE15=Extra
EXTD=
EXTT0=
EXTT1=
EXTT2=
EXTT3=
EXTT4=
EXTT5=
EXTT6=
EXTT7=
EXTT8=
EXTT9=
EXTT10=
EXTT11=
EXTT12=
EXTT13=
EXTT14=
EXTT15=
PLAYORDER=
